<svg id="Layer_1" data-name="Layer 1" xmlns="http://www.w3.org/2000/svg" viewBox="0 0 875.58 209.98"><defs><style>.cls-1{fill:#231815;fill-rule:evenodd;}</style></defs><title>5</title><path class="cls-1" d="M590.15,372.2c-.67-.65,15.78,10.48,43,50.47,17.26,25.39,41.15,17.17,47.29,12.08-32.6-40.93-69-73.28-71.21-74.54-.85-.49,28.09,11.92,67.4,51.64,16.81,17,31.2,14.13,44.14,4.45-38.17-37.45-81.93-65.64-84.34-66.53-1-.35,30.15,5.56,76.42,41.93,24.24,19.05,38.07,14.37,65.24,5.78-45.4-38.26-107-64.81-109.93-65.31-1.15-.21,55.46,7,116.34,49.06,24.57,17,30.91,7.24,59.2,3.6q-3.42-2.65-7.09-5.47c-49.52-37.83-129.94-57.54-133.21-57.54-1.37,0,73.09,2.56,155.38,48.44,28.47,15.87,45,9.26,76.68,10.07.13.06-137.29-137.28-302.6-81.51-30.76,10.37-45.91,61.54-121.61,73.79-11.35,81.22-2.26,91.07,17.46,108.78,6.41-44.48,8.42-81.86,8.2-84.35-.08-.92,2.48,13.17,2,54.09-.3,26,14.46,39.87,28.49,44.34-1.56-60.69-10.38-97.27-11.32-100.21-.32-1,6.9,14.15,17.18,65.78,4,20.11,23,23.78,33.33,22-12.75-52.71-30.13-98.77-31.48-101.13-.49-.85,12.33,18.8,29.08,62.05,8.66,22.35,31.47,19.56,37.76,13.26C618.37,411.52,591.94,374,590.15,372.2Z" transform="translate(-59.85 -285.49)"/><path class="cls-1" d="M405.14,372.2c.66-.65-15.79,10.48-43,50.47-17.27,25.39-41.15,17.17-47.3,12.08,32.6-40.93,69-73.28,71.21-74.54.86-.49-28.08,11.92-67.39,51.64-16.81,17-31.21,14.13-44.15,4.45,38.18-37.45,81.93-65.64,84.35-66.53.95-.35-30.16,5.56-76.43,41.93-24.24,19.05-38.07,14.37-65.24,5.78,45.4-38.26,107-64.81,109.93-65.31,1.16-.21-55.46,7-116.33,49.06-24.58,17-30.92,7.24-59.21,3.6q3.42-2.65,7.09-5.47c49.52-37.83,129.94-57.54,133.21-57.54,1.37,0-73.09,2.56-155.38,48.44-28.47,15.87-45,9.26-76.68,10.07-.13.06,137.29-137.28,302.6-81.51,30.76,10.37,45.91,61.54,121.62,73.79,11.34,81.22,2.25,91.07-17.47,108.78-6.41-44.48-8.41-81.86-8.2-84.35.08-.92-2.48,13.17-2,54.09.3,26-14.47,39.87-28.49,44.34,1.56-60.69,10.37-97.27,11.32-100.21.31-1-6.91,14.15-17.19,65.78-4,20.11-23,23.78-33.33,22,12.75-52.71,30.14-98.77,31.48-101.13.49-.85-12.32,18.8-29.08,62.05-8.66,22.35-31.47,19.56-37.75,13.26C376.91,411.52,403.34,374,405.14,372.2Z" transform="translate(-59.85 -285.49)"/></svg>