<svg xmlns="http://www.w3.org/2000/svg" xmlns:xlink="http://www.w3.org/1999/xlink" width="800" zoomAndPan="magnify" viewBox="0 0 600 449.999984" height="600" preserveAspectRatio="xMidYMid meet" version="1.0"><defs><clipPath id="4c23e9c8ac"><path d="M 253 96 L 347 96 L 347 418.125 L 253 418.125 Z M 253 96 " clip-rule="nonzero"/></clipPath></defs><path d="M 275.550781 130.292969 C 269.273438 148.695312 255.71875 180.234375 236.914062 178.507812 C 231.515625 178.007812 234.851562 175.179688 237.191406 169.113281 C 228.496094 180.558594 217.78125 189.898438 207.050781 187.195312 C 201.3125 185.75 206.722656 183.125 209.933594 175.9375 L 211.269531 172.945312 C 200.109375 184.632812 186.152344 194.984375 174.722656 190 C 169.378906 187.667969 175.054688 185.988281 179.332031 179.527344 C 180.992188 177.011719 182.917969 174.105469 185.015625 170.941406 C 171.179688 182.207031 152.960938 193.191406 141.109375 185.488281 C 136.164062 182.277344 142.109375 181.546875 147.449219 175.804688 C 150.519531 172.507812 154.296875 168.445312 158.445312 164.023438 C 142.070312 173.996094 119.582031 184.128906 107.960938 173.65625 C 103.417969 169.5625 109.628906 169.777344 116.035156 164.757812 C 120.214844 161.484375 125.5 157.351562 131.273438 152.875 C 112.582031 160.890625 87.347656 168.210938 76.714844 155.441406 C 72.566406 150.464844 79.042969 151.625 86.515625 147.335938 C 90.992188 144.761719 96.542969 141.574219 102.625 138.113281 C 82.199219 143.542969 57.019531 146.59375 47.976562 132.453125 C 44.230469 126.59375 50.976562 128.707031 59.511719 125.136719 C 63.699219 123.382812 68.707031 121.292969 74.195312 119.015625 C 52.960938 121.582031 29.464844 120.574219 22.089844 105.730469 C 18.742188 98.984375 25.753906 102.042969 35.351562 99.199219 C 38.894531 98.148438 42.960938 96.945312 47.378906 95.644531 L 47.375 95.644531 C 3.597656 90.851562 -0.0195312 79.261719 2.265625 76.789062 C 5.605469 73.179688 36.351562 74.523438 53.882812 71.660156 C 90.632812 65.65625 129.375 49.835938 167.929688 41.75 C 214.941406 31.894531 304.410156 111.351562 288.5625 112.222656 C 287.5625 112.277344 286.003906 111.625 283.949219 110.445312 C 281.71875 117.128906 278.777344 124.117188 275.550781 130.292969 " fill-opacity="1" fill-rule="evenodd"/><path d="M 324.382812 130.292969 C 330.660156 148.695312 344.214844 180.234375 363.015625 178.507812 C 368.417969 178.007812 365.078125 175.179688 362.742188 169.113281 C 371.4375 180.558594 382.152344 189.898438 392.882812 187.195312 C 398.621094 185.75 393.210938 183.125 390 175.9375 L 388.664062 172.945312 C 399.824219 184.632812 413.78125 194.984375 425.210938 190 C 430.554688 187.667969 424.878906 185.988281 420.605469 179.527344 C 418.941406 177.011719 417.015625 174.105469 414.914062 170.941406 C 428.75 182.207031 446.96875 193.191406 458.820312 185.488281 C 463.765625 182.277344 457.820312 181.546875 452.480469 175.804688 C 449.414062 172.507812 445.632812 168.445312 441.484375 164.023438 C 457.863281 173.996094 480.351562 184.128906 491.96875 173.65625 C 496.511719 169.5625 490.304688 169.777344 483.898438 164.757812 C 479.714844 161.484375 474.433594 157.351562 468.65625 152.875 C 487.347656 160.890625 512.582031 168.210938 523.222656 155.441406 C 527.367188 150.464844 520.886719 151.625 513.417969 147.335938 C 508.941406 144.761719 503.386719 141.574219 497.304688 138.113281 C 517.730469 143.542969 542.914062 146.59375 551.953125 132.453125 C 555.699219 126.59375 548.953125 128.707031 540.417969 125.136719 C 536.234375 123.382812 531.226562 121.292969 525.734375 119.015625 C 546.96875 121.582031 570.472656 120.574219 577.84375 105.730469 C 581.1875 98.984375 574.175781 102.042969 564.578125 99.199219 C 561.035156 98.148438 556.976562 96.945312 552.550781 95.644531 C 596.332031 90.851562 599.953125 79.261719 597.667969 76.789062 C 594.328125 73.179688 563.578125 74.523438 546.046875 71.660156 C 509.300781 65.65625 470.558594 49.835938 432 41.75 C 384.992188 31.894531 295.519531 111.351562 311.371094 112.222656 C 312.371094 112.277344 313.929688 111.625 315.980469 110.445312 C 318.214844 117.128906 321.15625 124.117188 324.382812 130.292969 " fill-opacity="1" fill-rule="evenodd"/><path fill="#666666" d="M 299.96875 65.8125 C 306.011719 65.8125 310.960938 70.761719 310.960938 76.808594 L 310.960938 115.230469 C 310.960938 121.285156 306.011719 126.230469 299.96875 126.230469 C 293.917969 126.230469 288.96875 121.285156 288.96875 115.230469 L 288.96875 76.808594 C 288.96875 70.761719 293.917969 65.8125 299.96875 65.8125 " fill-opacity="1" fill-rule="evenodd"/><path fill="#666666" d="M 471.140625 96.019531 L 471.140625 96.09375 C 471.140625 108.148438 461.277344 118.011719 449.222656 118.011719 L 150.710938 118.011719 C 138.65625 118.011719 128.792969 108.148438 128.792969 96.09375 L 128.792969 96.019531 L 471.140625 96.019531 " fill-opacity="1" fill-rule="evenodd"/><g clip-path="url(#4c23e9c8ac)"><path fill="#666666" d="M 253.808594 96.019531 C 269.1875 96.019531 284.574219 96.019531 299.953125 96.019531 C 315.335938 96.019531 330.734375 96.019531 346.125 96.019531 C 341.425781 151.554688 336.726562 207.128906 332.039062 262.628906 C 327.730469 313.609375 323.421875 355.304688 319.113281 404.777344 C 318.453125 412.355469 312.15625 418.125 304.554688 418.125 L 302.75 418.125 L 302.75 244.527344 L 297.183594 244.527344 L 297.183594 418.125 L 295.367188 418.125 C 287.765625 418.125 281.46875 412.355469 280.808594 404.777344 C 276.5 355.308594 272.183594 313.609375 267.875 262.628906 C 263.1875 207.128906 258.488281 151.554688 253.808594 96.019531 " fill-opacity="1" fill-rule="evenodd"/></g><path fill="#000000" d="M 428.414062 123.972656 L 439.648438 123.972656 L 439.648438 91.828125 L 428.414062 91.828125 L 428.414062 123.972656 " fill-opacity="1" fill-rule="evenodd"/><path fill="#000000" d="M 389.75 123.972656 L 400.984375 123.972656 L 400.984375 91.828125 L 389.75 91.828125 L 389.75 123.972656 " fill-opacity="1" fill-rule="evenodd"/><path fill="#000000" d="M 198.945312 123.972656 L 210.183594 123.972656 L 210.183594 91.828125 L 198.945312 91.828125 L 198.945312 123.972656 " fill-opacity="1" fill-rule="evenodd"/><path fill="#000000" d="M 160.28125 123.972656 L 171.515625 123.972656 L 171.515625 91.828125 L 160.28125 91.828125 L 160.28125 123.972656 " fill-opacity="1" fill-rule="evenodd"/></svg>