<svg xmlns="http://www.w3.org/2000/svg" xmlns:xlink="http://www.w3.org/1999/xlink" width="800" zoomAndPan="magnify" viewBox="0 0 600 449.999984" height="600" preserveAspectRatio="xMidYMid meet" version="1.0"><path d="M 384.542969 92.285156 L 361.546875 177.109375 L 346.3125 189.113281 L 359.964844 109.980469 L 300.042969 153.125 L 241.253906 110.796875 L 254.765625 189.113281 L 239.535156 177.109375 L 216.78125 93.175781 L 117.949219 22.019531 L 190.679688 185.652344 L 268.125 242.652344 C 274.75 277 302.03125 418.378906 302.03125 418.378906 L 336.144531 241.566406 L 409.40625 185.652344 L 482.136719 22.019531 Z M 384.542969 92.285156 " fill-opacity="1" fill-rule="nonzero"/><path d="M 327.046875 69.980469 C 327.046875 70.863281 327.003906 71.746094 326.917969 72.628906 C 326.832031 73.507812 326.703125 74.382812 326.53125 75.25 C 326.355469 76.117188 326.140625 76.976562 325.886719 77.820312 C 325.628906 78.667969 325.332031 79.5 324.992188 80.316406 C 324.652344 81.136719 324.277344 81.933594 323.859375 82.714844 C 323.441406 83.496094 322.988281 84.253906 322.496094 84.988281 C 322.003906 85.722656 321.480469 86.433594 320.917969 87.117188 C 320.355469 87.800781 319.765625 88.457031 319.140625 89.082031 C 318.511719 89.707031 317.859375 90.300781 317.175781 90.863281 C 316.492188 91.421875 315.78125 91.949219 315.046875 92.441406 C 314.3125 92.933594 313.554688 93.386719 312.773438 93.804688 C 311.992188 94.222656 311.195312 94.597656 310.378906 94.9375 C 309.5625 95.277344 308.730469 95.574219 307.882812 95.832031 C 307.035156 96.085938 306.179688 96.300781 305.3125 96.476562 C 304.445312 96.648438 303.570312 96.777344 302.691406 96.863281 C 301.808594 96.949219 300.929688 96.992188 300.042969 96.992188 C 299.160156 96.992188 298.277344 96.949219 297.394531 96.863281 C 296.515625 96.777344 295.640625 96.648438 294.773438 96.476562 C 293.90625 96.300781 293.050781 96.085938 292.203125 95.832031 C 291.359375 95.574219 290.527344 95.277344 289.710938 94.9375 C 288.890625 94.597656 288.09375 94.222656 287.3125 93.804688 C 286.535156 93.386719 285.777344 92.933594 285.039062 92.441406 C 284.304688 91.949219 283.59375 91.421875 282.910156 90.863281 C 282.226562 90.300781 281.574219 89.707031 280.949219 89.082031 C 280.324219 88.457031 279.730469 87.800781 279.167969 87.117188 C 278.605469 86.433594 278.082031 85.722656 277.589844 84.988281 C 277.097656 84.253906 276.644531 83.496094 276.226562 82.714844 C 275.808594 81.933594 275.433594 81.136719 275.09375 80.316406 C 274.753906 79.5 274.457031 78.667969 274.203125 77.820312 C 273.945312 76.976562 273.730469 76.117188 273.558594 75.25 C 273.386719 74.382812 273.253906 73.507812 273.167969 72.628906 C 273.082031 71.746094 273.039062 70.863281 273.039062 69.980469 C 273.039062 69.09375 273.082031 68.210938 273.167969 67.332031 C 273.253906 66.453125 273.386719 65.578125 273.558594 64.710938 C 273.730469 63.839844 273.945312 62.984375 274.203125 62.136719 C 274.457031 61.292969 274.753906 60.460938 275.09375 59.640625 C 275.433594 58.824219 275.808594 58.027344 276.226562 57.246094 C 276.644531 56.464844 277.097656 55.707031 277.589844 54.972656 C 278.082031 54.234375 278.605469 53.527344 279.167969 52.84375 C 279.730469 52.15625 280.324219 51.503906 280.949219 50.878906 C 281.574219 50.253906 282.226562 49.660156 282.910156 49.097656 C 283.59375 48.535156 284.304688 48.007812 285.039062 47.519531 C 285.777344 47.027344 286.535156 46.574219 287.3125 46.15625 C 288.09375 45.738281 288.890625 45.359375 289.710938 45.023438 C 290.527344 44.683594 291.359375 44.386719 292.203125 44.128906 C 293.050781 43.871094 293.90625 43.65625 294.773438 43.484375 C 295.640625 43.3125 296.515625 43.183594 297.394531 43.09375 C 298.277344 43.007812 299.160156 42.964844 300.042969 42.964844 C 300.929688 42.964844 301.808594 43.007812 302.691406 43.09375 C 303.570312 43.183594 304.445312 43.3125 305.3125 43.484375 C 306.179688 43.65625 307.035156 43.871094 307.882812 44.128906 C 308.730469 44.386719 309.5625 44.683594 310.378906 45.023438 C 311.195312 45.359375 311.992188 45.738281 312.773438 46.15625 C 313.554688 46.574219 314.3125 47.027344 315.046875 47.519531 C 315.78125 48.007812 316.492188 48.535156 317.175781 49.097656 C 317.859375 49.660156 318.511719 50.253906 319.140625 50.878906 C 319.765625 51.503906 320.355469 52.15625 320.917969 52.84375 C 321.480469 53.527344 322.003906 54.234375 322.496094 54.972656 C 322.988281 55.707031 323.441406 56.464844 323.859375 57.246094 C 324.277344 58.027344 324.652344 58.824219 324.992188 59.640625 C 325.332031 60.460938 325.628906 61.292969 325.886719 62.136719 C 326.140625 62.984375 326.355469 63.839844 326.53125 64.710938 C 326.703125 65.578125 326.832031 66.453125 326.917969 67.332031 C 327.003906 68.210938 327.046875 69.09375 327.046875 69.980469 Z M 327.046875 69.980469 " fill-opacity="1" fill-rule="nonzero"/></svg>